<svg id="visual" viewBox="0 0 900 600" width="900" height="600" xmlns="http://www.w3.org/2000/svg" xmlns:xlink="http://www.w3.org/1999/xlink" version="1.1"><rect x="0" y="0" width="900" height="600" fill="#a9a9a9"></rect><path d="M0 121L129 212L257 255L386 119L514 112L643 139L771 286L900 361L900 601L771 601L643 601L514 601L386 601L257 601L129 601L0 601Z" fill="#ff3b3f"></path><path d="M0 145L129 136L257 432L386 70L514 134L643 147L771 160L900 403L900 601L771 601L643 601L514 601L386 601L257 601L129 601L0 601Z" fill="#ff62b0"></path><path d="M0 380L129 400L257 319L386 399L514 174L643 438L771 407L900 200L900 601L771 601L643 601L514 601L386 601L257 601L129 601L0 601Z" fill="#ce9ef8"></path><path d="M0 405L129 230L257 189L386 229L514 368L643 206L771 415L900 159L900 601L771 601L643 601L514 601L386 601L257 601L129 601L0 601Z" fill="#a0c9ff"></path><path d="M0 229L129 477L257 314L386 424L514 359L643 216L771 330L900 329L900 601L771 601L643 601L514 601L386 601L257 601L129 601L0 601Z" fill="#b4e4f7"></path><path d="M0 435L129 370L257 328L386 480L514 319L643 262L771 491L900 317L900 601L771 601L643 601L514 601L386 601L257 601L129 601L0 601Z" fill="#caebf2"></path><path d="M0 456L129 307L257 450L386 391L514 358L643 333L771 379L900 496L900 601L771 601L643 601L514 601L386 601L257 601L129 601L0 601Z" fill="#caebf2"></path><path d="M0 377L129 500L257 372L386 367L514 449L643 513L771 399L900 392L900 601L771 601L643 601L514 601L386 601L257 601L129 601L0 601Z" fill="#b4e4f7"></path><path d="M0 539L129 412L257 469L386 436L514 473L643 536L771 544L900 505L900 601L771 601L643 601L514 601L386 601L257 601L129 601L0 601Z" fill="#a0c9ff"></path><path d="M0 460L129 518L257 560L386 441L514 548L643 511L771 473L900 434L900 601L771 601L643 601L514 601L386 601L257 601L129 601L0 601Z" fill="#ce9ef8"></path><path d="M0 489L129 548L257 491L386 525L514 502L643 503L771 479L900 488L900 601L771 601L643 601L514 601L386 601L257 601L129 601L0 601Z" fill="#ff62b0"></path><path d="M0 574L129 548L257 558L386 529L514 523L643 565L771 556L900 546L900 601L771 601L643 601L514 601L386 601L257 601L129 601L0 601Z" fill="#ff3b3f"></path></svg>